<svg width="32" height="32" viewBox="0 0 32 32" fill="none" xmlns="http://www.w3.org/2000/svg">
<path d="M7.20516 13.6598C7.04954 13.6992 6.43935 13.9037 6.28373 13.9431C6.10511 13.9885 5.94844 14.0959 5.84163 14.2461C5.73483 14.3962 5.68485 14.5795 5.7006 14.7631C5.70071 14.7677 5.70112 14.7723 5.70185 14.7769C5.71874 14.9755 5.81134 15.16 5.96047 15.2923C6.10961 15.4245 6.30388 15.4944 6.5031 15.4875C7.20623 15.4631 7.90956 15.4385 8.6131 15.4137C9.5541 14.9769 10.0021 14.6197 9.95723 14.3422C9.89802 13.976 8.98066 13.7485 7.20516 13.6598Z" fill="#FFC166"/>
<path d="M9.79599 14.5855L8.05011 15.7949C7.88068 15.9095 7.75862 16.0817 7.70665 16.2795C7.65468 16.4773 7.67633 16.6872 7.76758 16.8703C7.85883 17.0533 8.01346 17.1969 8.2027 17.2745C8.39194 17.352 8.60292 17.3582 8.79636 17.2918L11.8045 16.2625C11.8509 16.0812 11.9224 15.6831 11.7289 15.2991C11.4345 14.7152 10.6442 14.3959 9.79599 14.5854V14.5855Z" fill="#FFC570"/>
<path d="M29.6561 15.2037H12.0674C11.0318 15.2037 10.1924 16.0432 10.1924 17.0787V26.075C10.1924 27.1105 11.0318 27.95 12.0674 27.95H29.6561C30.6917 27.95 31.5311 27.1105 31.5311 26.075V17.0787C31.5311 16.0432 30.6917 15.2037 29.6561 15.2037Z" fill="#FFE177"/>
<path d="M29.6562 15.2037H28.7188C29.216 15.2037 29.6929 15.4013 30.0446 15.7529C30.3962 16.1045 30.5938 16.5815 30.5938 17.0787V26.075C30.5938 26.5723 30.3962 27.0492 30.0446 27.4008C29.6929 27.7524 29.216 27.95 28.7188 27.95H29.6562C30.1535 27.95 30.6304 27.7524 30.9821 27.4008C31.3337 27.0492 31.5312 26.5723 31.5312 26.075V17.0787C31.5312 16.5815 31.3337 16.1045 30.9821 15.7529C30.6304 15.4013 30.1535 15.2037 29.6562 15.2037Z" fill="#1B6392"/>
<path d="M12.0674 24.7V18.4537C12.4321 18.4537 12.7818 18.3089 13.0397 18.051C13.2975 17.7931 13.4424 17.4434 13.4424 17.0787H28.2811C28.2811 17.4434 28.426 17.7931 28.6839 18.051C28.9417 18.3089 29.2915 18.4537 29.6561 18.4537V24.7C29.2915 24.7 28.9417 24.8449 28.6839 25.1027C28.426 25.3606 28.2811 25.7103 28.2811 26.075H13.4424C13.4424 25.7103 13.2975 25.3606 13.0397 25.1027C12.7818 24.8449 12.4321 24.7 12.0674 24.7Z" fill="white"/>
<path d="M28.2812 17.0787H27.3438C27.3438 17.4434 27.4886 17.7931 27.7465 18.051C28.0043 18.3089 28.3541 18.4537 28.7188 18.4537V24.7C28.3541 24.7 28.0043 24.8449 27.7465 25.1027C27.4886 25.3606 27.3438 25.7103 27.3438 26.075H28.2812C28.2812 25.7103 28.4261 25.3606 28.684 25.1027C28.9418 24.8449 29.2916 24.7 29.6562 24.7V18.4537C29.2916 18.4537 28.9418 18.3089 28.684 18.051C28.4261 17.7931 28.2812 17.4434 28.2812 17.0787Z" fill="#EEEEEE"/>
<path d="M16.2143 15.7837L15.4774 15.2037L11.9149 12.3987C11.8061 12.3134 11.7183 12.2045 11.6579 12.0802C11.5976 11.9558 11.5664 11.8194 11.5668 11.6812C11.5668 11.648 11.5686 11.6148 11.5724 11.5818C11.5736 11.5681 11.5755 11.5537 11.578 11.54C11.5945 11.4332 11.6301 11.3304 11.683 11.2362C11.7441 11.1271 11.827 11.0317 11.9264 10.956C12.0259 10.8802 12.1399 10.8257 12.2613 10.7958C12.3828 10.7659 12.509 10.7613 12.6323 10.7822C12.7556 10.8032 12.8732 10.8492 12.978 10.9175L13.3805 11.18L14.4199 11.8575L14.9793 12.2231L15.3461 15.2037H17.4274L17.0186 11.1706C16.9637 10.6514 16.8099 10.1475 16.5655 9.68621L16.3611 9.30183C16.3574 9.29433 16.3536 9.28746 16.3499 9.27996L16.3461 9.27246C15.7749 8.14246 15.2034 7.01225 14.6318 5.88183C14.5328 5.6859 14.3834 5.51989 14.199 5.40091C14.0145 5.28193 13.8017 5.21429 13.5824 5.20496C11.1418 5.37058 8.70134 5.536 6.26113 5.70121L5.40988 5.75933C5.36051 5.76246 5.31051 5.76621 5.26113 5.76933C5.09113 5.76433 4.91717 5.75621 4.73926 5.74496C4.60113 5.73621 3.87301 5.65933 3.73988 5.64746L2.21069 11.2403L4.05363 12.4862C4.24313 12.6171 4.4499 12.721 4.66801 12.795L7.68801 13.8243L9.61051 14.48L10.3274 14.8881L11.1524 15.3581L12.5168 16.135L12.7418 16.2625L12.7518 16.2681L14.1936 17.0893L14.2199 17.1043L15.0193 17.5593C15.1655 17.6427 15.3294 17.6905 15.4976 17.6989C15.6658 17.7073 15.8336 17.676 15.9874 17.6075C16.1413 17.5391 16.2769 17.4354 16.3833 17.3049C16.4896 17.1744 16.5639 17.0207 16.5999 16.8562C16.6476 16.635 16.6246 16.4043 16.5343 16.1968C16.4635 16.0347 16.3535 15.8927 16.2143 15.7837Z" fill="#FFCD85"/>
<path d="M11.915 12.3987C11.8063 12.3134 11.7184 12.2045 11.6581 12.0802C11.5978 11.9558 11.5666 11.8194 11.5669 11.6812C11.5669 11.648 11.5688 11.6148 11.5725 11.5818C11.5738 11.5681 11.5756 11.5537 11.5781 11.54C11.5988 11.4082 11.6482 11.2825 11.7227 11.1718C11.7973 11.0612 11.8952 10.9682 12.0095 10.8995C11.9049 10.8369 11.7887 10.7959 11.668 10.7789C11.5472 10.762 11.4243 10.7695 11.3064 10.8008C11.1886 10.8322 11.0783 10.8869 10.9819 10.9617C10.8856 11.0365 10.8053 11.1298 10.7456 11.2362C10.6927 11.3304 10.6572 11.4332 10.6406 11.54C10.6381 11.5537 10.6363 11.5681 10.635 11.5818C10.6313 11.6148 10.6294 11.648 10.6294 11.6812C10.6291 11.8194 10.6603 11.9558 10.7206 12.0802C10.7809 12.2045 10.8688 12.3134 10.9775 12.3987L14.54 15.2037H15.4775L11.915 12.3987ZM13.6944 5.88183C14.2656 7.01183 14.8371 8.14204 15.4088 9.27246L15.4125 9.27996C15.4163 9.28746 15.42 9.29433 15.4238 9.30183L15.6281 9.68621C15.8725 10.1475 16.0263 10.6514 16.0813 11.1706L16.49 15.2037H17.4275L17.0188 11.1706C16.9638 10.6514 16.81 10.1475 16.5656 9.68621L16.3613 9.30183C16.3575 9.29433 16.3538 9.28746 16.35 9.27996L16.3463 9.27246C15.775 8.14246 15.2036 7.01225 14.6319 5.88183C14.533 5.6859 14.3836 5.51989 14.1991 5.40091C14.0147 5.28193 13.8018 5.21429 13.5825 5.20496L12.923 5.24964C13.0885 5.29545 13.2426 5.37535 13.3755 5.48422C13.5083 5.59309 13.617 5.72852 13.6944 5.88183ZM3.80189 5.74496C3.98002 5.75621 4.15398 5.76433 4.32377 5.76933C4.37314 5.76621 4.42314 5.76246 4.47252 5.75933L4.71233 5.74296C4.52627 5.72827 3.86627 5.65877 3.74008 5.64752L3.71533 5.73789C3.75283 5.74127 3.78314 5.74377 3.80189 5.74496Z" fill="#FFC570"/>
<path d="M16.2144 15.7837L15.4775 15.2037H14.54L15.2769 15.7837C15.4162 15.8928 15.5262 16.0347 15.5969 16.1969C15.6774 16.3802 15.7049 16.5824 15.6762 16.7806C15.6476 16.9788 15.5641 17.165 15.435 17.3181C15.3377 17.4333 15.2171 17.5266 15.0812 17.5919C15.2273 17.663 15.3876 17.7 15.5501 17.7002C15.7126 17.7004 15.873 17.6637 16.0192 17.5929C16.1655 17.522 16.2937 17.4189 16.3943 17.2913C16.4949 17.1637 16.5653 17.015 16.6 16.8562C16.6478 16.635 16.6248 16.4044 16.5344 16.1969C16.4637 16.0347 16.3537 15.8928 16.2144 15.7837Z" fill="#FFC570"/>
<path d="M0 4.05005L3.51463 4.81305C3.66011 4.84604 3.78653 4.93547 3.86608 5.06167C3.94563 5.18787 3.97179 5.3405 3.93881 5.48599L2.42169 12.1789C2.3887 12.3243 2.29927 12.4508 2.17307 12.5303C2.04687 12.6099 1.89424 12.636 1.74875 12.603L0 12.3129" fill="#FA8232"/>
<path d="M3.51463 4.81299L0 4.05005V4.77111L2.57713 5.33061C2.72261 5.3636 2.84903 5.45303 2.92858 5.57923C3.00813 5.70543 3.03429 5.85806 3.00131 6.00355L1.51419 12.5641L1.74875 12.603C1.89424 12.636 2.04687 12.6098 2.17307 12.5303C2.29927 12.4507 2.3887 12.3243 2.42169 12.1788L3.93881 5.48592C3.97179 5.34044 3.94563 5.18781 3.86608 5.06161C3.78653 4.93541 3.66011 4.84598 3.51463 4.81299Z" fill="#FA8232"/>
<path d="M19.0426 20.5485C19.0426 20.6728 19.092 20.792 19.1799 20.8799C19.2678 20.9679 19.387 21.0172 19.5114 21.0172H20.8901C20.8048 21.1788 20.6771 21.314 20.5207 21.4084C20.3643 21.5028 20.1851 21.5528 20.0024 21.553H19.5113C19.4195 21.553 19.3297 21.58 19.2531 21.6305C19.1765 21.6811 19.1164 21.753 19.0804 21.8374C19.0443 21.9218 19.0337 22.0149 19.0501 22.1053C19.0665 22.1956 19.109 22.2791 19.1724 22.3455L21.1366 24.4021C21.1791 24.4466 21.23 24.4823 21.2863 24.5071C21.3426 24.532 21.4033 24.5455 21.4648 24.5469C21.5264 24.5483 21.5876 24.5376 21.645 24.5154C21.7024 24.4931 21.7548 24.4598 21.7994 24.4173C21.8439 24.3748 21.8796 24.3239 21.9044 24.2676C21.9293 24.2113 21.9428 24.1506 21.9442 24.0891C21.9457 24.0275 21.9349 23.9663 21.9127 23.9089C21.8905 23.8515 21.8571 23.7991 21.8146 23.7545L20.536 22.4159C20.8639 22.3214 21.1612 22.1425 21.3982 21.897C21.6352 21.6516 21.8037 21.3482 21.8867 21.0172H22.2123C22.3366 21.0172 22.4558 20.9679 22.5437 20.8799C22.6317 20.792 22.681 20.6728 22.681 20.5485C22.681 20.4242 22.6317 20.3049 22.5437 20.217C22.4558 20.1291 22.3366 20.0797 22.2123 20.0797H21.8869C21.8399 19.891 21.7647 19.7104 21.6639 19.5441H22.2122C22.3366 19.5441 22.4558 19.4947 22.5437 19.4068C22.6316 19.3189 22.681 19.1997 22.681 19.0754C22.681 18.951 22.6316 18.8318 22.5437 18.7439C22.4558 18.656 22.3366 18.6066 22.2122 18.6066H19.5114C19.387 18.6066 19.2678 18.656 19.1799 18.7439C19.092 18.8318 19.0426 18.951 19.0426 19.0754C19.0426 19.1997 19.092 19.3189 19.1799 19.4068C19.2678 19.4947 19.387 19.5441 19.5114 19.5441H20.0024C20.1851 19.5443 20.3643 19.5942 20.5207 19.6886C20.6771 19.783 20.8048 19.9182 20.8901 20.0797H19.5114C19.387 20.0797 19.2678 20.1291 19.1799 20.217C19.092 20.3049 19.0426 20.4242 19.0426 20.5485ZM29.6562 14.735H17.851L17.4845 11.1214C17.4241 10.5423 17.2525 9.98018 16.9792 9.46599L16.7751 9.08192L16.7675 9.06692L16.7645 9.06099L15.0504 5.67086C14.9138 5.40062 14.7077 5.17163 14.4533 5.00744C14.1988 4.84326 13.9053 4.7498 13.6027 4.73667C13.5854 4.73597 13.568 4.73618 13.5507 4.7373L12.8177 4.78705C10.6215 4.93609 8.42531 5.08492 6.22923 5.23355L5.25242 5.30005C5.09114 5.29498 4.92995 5.28733 4.76892 5.27711C4.65436 5.26986 4.53748 5.26086 4.41473 5.25017C4.39199 5.03764 4.30364 4.83745 4.16193 4.67742C4.02023 4.51739 3.83221 4.40546 3.62398 4.35717L0.582543 3.5953C0.462398 3.56637 0.33569 3.58606 0.229987 3.65008C0.124283 3.7141 0.0481371 3.81727 0.0181144 3.93715C-0.0119082 4.05702 0.00662197 4.18391 0.0696735 4.29019C0.132725 4.39647 0.235196 4.47356 0.354793 4.50467L3.40054 5.26774L3.41086 5.27024C3.43507 5.27577 3.45611 5.29068 3.46935 5.3117C3.48259 5.33272 3.48695 5.35813 3.48148 5.38236L1.96448 12.0752C1.96176 12.0872 1.95671 12.0985 1.94961 12.1086C1.94251 12.1186 1.93349 12.1271 1.92309 12.1337C1.91268 12.1403 1.90108 12.1447 1.88895 12.1468C1.87683 12.1489 1.86441 12.1485 1.85242 12.1458L0.572418 11.8557C0.451173 11.8282 0.323973 11.85 0.2188 11.9163C0.113627 11.9826 0.0390973 12.0879 0.011606 12.2092C-0.0158854 12.3304 0.00591379 12.4576 0.0722079 12.5628C0.138502 12.668 0.243861 12.7425 0.365106 12.77L1.64517 13.0601C1.72061 13.0773 1.79774 13.086 1.87511 13.086C2.10865 13.0854 2.33507 13.0055 2.51738 12.8596C2.6997 12.7136 2.82713 12.5102 2.87886 12.2824L2.88636 12.2492L3.78748 12.872C4.01242 13.0274 4.2579 13.1508 4.51686 13.2386L5.77248 13.6667C5.59125 13.7898 5.44585 13.9588 5.35104 14.1563C5.25623 14.3539 5.21539 14.573 5.23267 14.7914C5.23329 14.8037 5.23436 14.8161 5.23592 14.8287C5.26496 15.1373 5.4081 15.4239 5.63732 15.6326C5.86654 15.8412 6.16536 15.9567 6.47529 15.9567C6.48986 15.9567 6.50467 15.9564 6.51929 15.9559C6.79296 15.9464 7.06671 15.9368 7.34054 15.9272C7.22866 16.1602 7.18816 16.4212 7.22411 16.6772C7.26007 16.9332 7.37089 17.1728 7.54265 17.366C7.71441 17.5593 7.93943 17.6974 8.18946 17.7631C8.43949 17.8288 8.70336 17.8192 8.94792 17.7354L9.72373 17.47V26.075C9.72443 26.6964 9.97158 27.2921 10.411 27.7315C10.8504 28.1709 11.4461 28.418 12.0675 28.4187H29.6562C30.2776 28.418 30.8733 28.1709 31.3127 27.7315C31.7521 27.2921 31.9992 26.6964 31.9999 26.075V17.0787C31.9992 16.4573 31.7521 15.8616 31.3127 15.4222C30.8733 14.9828 30.2776 14.7357 29.6562 14.735ZM6.48673 15.019C6.40779 15.0215 6.33088 14.9937 6.27178 14.9413C6.21268 14.8889 6.17587 14.8159 6.16892 14.7372C6.1686 14.7336 6.16823 14.73 6.16779 14.7264C6.16779 14.7254 6.16767 14.7242 6.16754 14.7231C6.16103 14.6502 6.18072 14.5774 6.22307 14.5177C6.26542 14.458 6.32766 14.4154 6.39861 14.3975C6.48404 14.3759 6.63998 14.3267 6.88673 14.2481C6.98792 14.2158 7.10411 14.1788 7.19361 14.1512L8.80611 14.7009L8.44573 14.9505C7.79248 14.9737 7.13948 14.9965 6.48673 15.019ZM9.80961 16.4499L8.64336 16.8487C8.5941 16.8655 8.54189 16.8718 8.49006 16.8673C8.43822 16.8628 8.38789 16.8475 8.34228 16.8225C8.29667 16.7975 8.25678 16.7632 8.22514 16.7219C8.19351 16.6806 8.17083 16.6331 8.15854 16.5826C8.14074 16.5074 8.14636 16.4285 8.17466 16.3566C8.20296 16.2847 8.25258 16.2232 8.31686 16.1804L8.80829 15.8399C8.85744 15.8171 8.90227 15.7861 8.94079 15.748L9.82029 15.1387L10.3774 15.456C10.1086 15.735 9.91345 16.0766 9.80961 16.4499ZM9.84242 14.0726C9.81675 14.058 9.78975 14.0459 9.76179 14.0364L7.36592 13.2195L7.35911 13.2172L4.81817 12.3509C4.64136 12.291 4.47375 12.2068 4.32017 12.1006L3.23392 11.35C3.19421 11.3226 3.15051 11.3014 3.10436 11.2874L4.26279 6.17674C4.27217 6.17811 4.28129 6.1798 4.29079 6.18061C4.60901 6.20919 4.928 6.2283 5.24736 6.23792C5.26161 6.23836 5.27642 6.23811 5.29092 6.23717L6.29279 6.16892C8.48913 6.02042 10.6853 5.87159 12.8812 5.72242L13.585 5.67461C13.717 5.68424 13.8443 5.72787 13.9544 5.80125C14.0645 5.87463 14.1538 5.97526 14.2135 6.09336L15.9276 9.48342L15.9426 9.51286L15.9472 9.52186L16.1512 9.90561C16.3678 10.3132 16.5039 10.7587 16.552 11.2178L16.9087 14.735H15.761L15.4445 12.1658C15.4361 12.0981 15.4131 12.033 15.377 11.9751C15.3409 11.9172 15.2926 11.8678 15.2354 11.8305L14.6848 11.4712C14.6817 11.4692 14.679 11.4668 14.6759 11.4648L13.2339 10.5247C13.0753 10.4214 12.8973 10.3518 12.7108 10.3201C12.5242 10.2885 12.3332 10.2955 12.1495 10.3407C11.9658 10.3859 11.7933 10.4683 11.6428 10.5829C11.4922 10.6975 11.3668 10.8418 11.2743 11.0068C11.1948 11.1481 11.1411 11.3025 11.1157 11.4626C11.1116 11.4862 11.1084 11.5105 11.1061 11.5342C11.1007 11.583 11.098 11.6321 11.098 11.6812C11.0971 11.8904 11.1441 12.0971 11.2355 12.2853C11.3268 12.4735 11.46 12.6383 11.6249 12.767L15.1789 15.5652L15.1802 15.5662L15.9242 16.152C16.0031 16.2133 16.0652 16.2934 16.105 16.385C16.1555 16.5017 16.1685 16.6312 16.142 16.7556C16.1318 16.802 16.1162 16.847 16.0955 16.8897C16.0945 16.892 16.0933 16.8941 16.0924 16.8964C16.0422 16.9973 15.9649 17.0822 15.869 17.1414C15.7731 17.2006 15.6625 17.2317 15.5499 17.2312C15.445 17.2315 15.342 17.2042 15.2511 17.152L9.84242 14.0726ZM16.7317 17.6192C16.7513 17.5957 16.7702 17.5718 16.7882 17.5475H27.8728C27.9565 17.8631 28.1222 18.151 28.3531 18.3818C28.5839 18.6127 28.8718 18.7784 29.1874 18.862V24.2915C28.8718 24.3752 28.5839 24.5409 28.353 24.7718C28.1221 25.0027 27.9565 25.2906 27.8728 25.6062H13.8508C13.7671 25.2906 13.6014 25.0027 13.3705 24.7719C13.1397 24.541 12.8518 24.3753 12.5362 24.2916V18.862C12.8518 18.7784 13.1397 18.6127 13.3705 18.3818C13.6014 18.1509 13.7671 17.863 13.8508 17.5474H14.051L14.7874 17.9667C15.101 18.1451 15.4672 18.2081 15.8224 18.1446C16.1776 18.0811 16.4993 17.8952 16.7317 17.6192ZM14.728 14.017L12.2037 12.0295C12.1509 11.9881 12.1083 11.9353 12.0792 11.8749C12.05 11.8145 12.0351 11.7483 12.0355 11.6812C12.0355 11.6658 12.0364 11.6504 12.0381 11.6351C12.0386 11.6312 12.0389 11.628 12.0392 11.624L12.0412 11.612C12.0492 11.5604 12.0664 11.5107 12.092 11.4652C12.1218 11.4121 12.1621 11.3657 12.2105 11.3289C12.2589 11.292 12.3143 11.2655 12.3734 11.251C12.4324 11.2364 12.4938 11.2342 12.5538 11.2443C12.6138 11.2545 12.671 11.2769 12.722 11.31L13.1226 11.5713L13.1244 11.5725L14.5407 12.4966L14.728 14.017ZM31.0624 26.075C31.062 26.4478 30.9137 26.8053 30.6501 27.0689C30.3864 27.3325 30.029 27.4808 29.6562 27.4812H12.0674C11.6946 27.4808 11.3372 27.3325 11.0735 27.0689C10.8099 26.8053 10.6616 26.4478 10.6612 26.075V17.0787C10.6615 16.8579 10.7138 16.6402 10.8137 16.4433C10.9136 16.2464 11.0584 16.0757 11.2364 15.945L12.9932 16.9452C12.9803 16.9885 12.9737 17.0335 12.9737 17.0787C12.9734 17.3189 12.8778 17.5493 12.7079 17.7192C12.538 17.8891 12.3077 17.9846 12.0674 17.9849C11.9431 17.9849 11.8239 18.0343 11.736 18.1222C11.6481 18.2101 11.5987 18.3294 11.5987 18.4537V24.6999C11.5987 24.8242 11.6481 24.9435 11.736 25.0314C11.8239 25.1193 11.9431 25.1687 12.0674 25.1687C12.3077 25.169 12.538 25.2645 12.7079 25.4344C12.8778 25.6043 12.9734 25.8347 12.9737 26.0749C12.9737 26.1992 13.0231 26.3185 13.111 26.4064C13.1989 26.4943 13.3181 26.5437 13.4424 26.5437H28.2812C28.4055 26.5437 28.5247 26.4943 28.6126 26.4064C28.7005 26.3185 28.7499 26.1992 28.7499 26.0749C28.7502 25.8347 28.8458 25.6043 29.0157 25.4344C29.1856 25.2645 29.4159 25.169 29.6562 25.1687C29.7805 25.1687 29.8997 25.1193 29.9876 25.0314C30.0755 24.9435 30.1249 24.8242 30.1249 24.6999V18.4537C30.1249 18.3294 30.0755 18.2101 29.9876 18.1222C29.8997 18.0343 29.7805 17.9849 29.6562 17.9849C29.4159 17.9846 29.1856 17.8891 29.0157 17.7192C28.8458 17.5493 28.7502 17.3189 28.7499 17.0787C28.7499 16.9544 28.7005 16.8351 28.6126 16.7472C28.5247 16.6593 28.4055 16.6099 28.2812 16.6099H17.0919C17.0898 16.4035 17.0464 16.1995 16.9642 16.0101C16.9115 15.8892 16.8432 15.7757 16.7612 15.6724H29.6562C30.029 15.6729 30.3864 15.8211 30.6501 16.0848C30.9137 16.3484 31.062 16.7058 31.0624 17.0787V26.075Z" fill="#272A33"/>
</svg>
