<svg width="16" height="16" viewBox="0 0 16 16" fill="none" xmlns="http://www.w3.org/2000/svg">
<g clip-path="url(#clip0_1_4882)">
<path d="M5.60056 8.00005C5.60056 6.67461 6.67479 5.59986 8.00028 5.59986C9.32576 5.59986 10.4006 6.67461 10.4006 8.00005C10.4006 9.32548 9.32576 10.4002 8.00028 10.4002C6.67479 10.4002 5.60056 9.32548 5.60056 8.00005ZM4.30301 8.00005C4.30301 10.042 5.95827 11.6972 8.00028 11.6972C10.0423 11.6972 11.6975 10.042 11.6975 8.00005C11.6975 5.95813 10.0423 4.30294 8.00028 4.30294C5.95827 4.30294 4.30307 5.95801 4.30307 8.00005H4.30301ZM10.9799 4.15634C10.9799 4.32723 11.0305 4.49429 11.1254 4.63641C11.2202 4.77854 11.3551 4.88933 11.513 4.95479C11.6708 5.02025 11.8446 5.03742 12.0122 5.00415C12.1798 4.97088 12.3338 4.88866 12.4547 4.76787C12.5756 4.64709 12.6579 4.49317 12.6913 4.32559C12.7247 4.158 12.7077 3.98427 12.6424 3.82637C12.577 3.66847 12.4663 3.53349 12.3243 3.43849C12.1822 3.3435 12.0152 3.29276 11.8443 3.29269H11.844C11.6149 3.2928 11.3952 3.38381 11.2332 3.54574C11.0712 3.70768 10.9801 3.92729 10.9799 4.15634ZM5.09136 13.8607C4.38936 13.8288 4.0078 13.7118 3.75424 13.6131C3.41807 13.4822 3.17821 13.3263 2.92603 13.0745C2.67385 12.8227 2.51775 12.583 2.38745 12.2469C2.2886 11.9935 2.17167 11.6118 2.13976 10.9098C2.10485 10.1509 2.09788 9.92291 2.09788 8.00016C2.09788 6.07742 2.10543 5.85007 2.13976 5.0905C2.17173 4.38853 2.28953 4.00762 2.38745 3.75343C2.51832 3.41728 2.67419 3.17743 2.92603 2.92526C3.17787 2.67309 3.41749 2.51699 3.75424 2.3867C4.00769 2.28786 4.38936 2.17093 5.09136 2.13902C5.85033 2.10411 6.07832 2.09714 8.00028 2.09714C9.92223 2.09714 10.1505 2.10457 10.9101 2.13913C11.6121 2.1711 11.993 2.28889 12.2472 2.38681C12.5833 2.5171 12.8232 2.67355 13.0754 2.92537C13.3276 3.1772 13.4831 3.41739 13.614 3.75355C13.7128 4.00699 13.8297 4.38864 13.8617 5.09061C13.8966 5.85019 13.9035 6.07753 13.9035 8.00028C13.9035 9.92302 13.8966 10.1504 13.8617 10.9099C13.8297 11.6119 13.7122 11.9935 13.614 12.247C13.4831 12.5832 13.3272 12.823 13.0754 13.0746C12.8235 13.3262 12.5833 13.4823 12.2472 13.6132C11.9937 13.712 11.6121 13.8289 10.9101 13.8608C10.1511 13.8958 9.9231 13.9027 8.00028 13.9027C6.07745 13.9027 5.8501 13.8958 5.09136 13.8608V13.8607ZM5.03174 0.843652C4.26523 0.878558 3.74145 1.00009 3.28403 1.17808C2.8106 1.36188 2.40928 1.60846 2.00854 2.00855C1.6078 2.40864 1.36184 2.81 1.17803 3.28399C1.00004 3.74168 0.8785 4.26515 0.843593 5.03163C0.80811 5.79933 0.799988 6.04476 0.799988 8.00005C0.799988 9.95534 0.80811 10.2008 0.843593 10.9685C0.8785 11.735 1.00004 12.2584 1.17803 12.7161C1.36184 13.1895 1.60786 13.5916 2.00854 13.9915C2.40922 14.3915 2.81002 14.6377 3.28403 14.822C3.74231 15 4.26523 15.1215 5.03174 15.1564C5.79987 15.1913 6.04491 15.2 8.00028 15.2C9.95564 15.2 10.2011 15.1919 10.9688 15.1564C11.7354 15.1215 12.2588 15 12.7165 14.822C13.19 14.6377 13.5913 14.3916 13.992 13.9915C14.3927 13.5915 14.6382 13.1895 14.8225 12.7161C15.0005 12.2584 15.1226 11.7349 15.157 10.9685C15.1919 10.2002 15.2 9.95534 15.2 8.00005C15.2 6.04476 15.1919 5.79933 15.157 5.03163C15.1221 4.26509 15.0005 3.74139 14.8225 3.28399C14.6382 2.81058 14.3921 2.40928 13.992 2.00855C13.5919 1.60783 13.19 1.36188 12.7171 1.17808C12.2588 1.00009 11.7353 0.877982 10.9694 0.843652C10.2015 0.808574 9.95622 0.800049 8.00114 0.800049C6.04606 0.800049 5.80016 0.80817 5.03203 0.843652" fill="white"/>
</g>
<defs>
<clipPath id="clip0_1_4882">
<rect width="16" height="16" fill="white"/>
</clipPath>
</defs>
</svg>
