<svg width="28" height="28" viewBox="0 0 28 28" fill="none" xmlns="http://www.w3.org/2000/svg">
<path d="M4.375 10.5657C4.77332 9.08152 5.55499 7.72823 6.64159 6.64164C7.72818 5.55504 9.08147 4.77336 10.5656 4.37505" stroke="white" stroke-width="1.5" stroke-linecap="round" stroke-linejoin="round"/>
<path d="M7.7547 11.4734C7.99177 10.5808 8.46059 9.76666 9.11365 9.11359C9.76672 8.46053 10.5808 7.9917 11.4735 7.75464" stroke="white" stroke-width="1.5" stroke-linecap="round" stroke-linejoin="round"/>
<path d="M13.65 17.8828C15.5094 16.9824 17.009 15.4789 17.9047 13.6172C17.9697 13.4799 17.9978 13.328 17.9863 13.1765C17.9748 13.025 17.9241 12.8791 17.839 12.7531L16.0125 10.0188C15.9305 9.89794 15.8805 9.75834 15.8672 9.61298C15.8538 9.46762 15.8774 9.32124 15.9359 9.1875L18.1344 4.06875C18.2072 3.89381 18.3355 3.74765 18.4995 3.65278C18.6635 3.55792 18.8542 3.51961 19.0422 3.54375C20.3084 3.70599 21.4722 4.32406 22.3157 5.28233C23.1592 6.24059 23.6247 7.47337 23.625 8.75C23.625 12.6951 22.0578 16.4786 19.2682 19.2682C16.4786 22.0578 12.6951 23.625 8.74998 23.625C7.47335 23.6247 6.24056 23.1593 5.2823 22.3158C4.32404 21.4722 3.70596 20.3085 3.54372 19.0422C3.51958 18.8542 3.55789 18.6636 3.65276 18.4995C3.74762 18.3355 3.89378 18.2072 4.06872 18.1344L9.19841 15.9359C9.33004 15.8788 9.47371 15.8549 9.61677 15.8663C9.75982 15.8777 9.89786 15.9242 10.0187 16.0016L12.7969 17.8281C12.9225 17.9094 13.0669 17.9572 13.2163 17.9667C13.3656 17.9763 13.515 17.9474 13.65 17.8828V17.8828Z" stroke="white" stroke-width="1.5" stroke-linecap="round" stroke-linejoin="round"/>
</svg>
