<svg width="16" height="16" viewBox="0 0 16 16" fill="none" xmlns="http://www.w3.org/2000/svg">
<g clip-path="url(#clip0_1_4877)">
<path d="M7.02415 0.0530204C4.36529 0.349837 1.71581 2.50098 1.60645 5.57382C1.53772 7.45001 2.07042 8.85755 3.85602 9.25278C4.63086 7.88586 3.60606 7.58436 3.44672 6.59549C2.79216 2.54316 8.12081 -0.220364 10.9093 2.60877C12.8386 4.56776 11.5686 10.5947 8.45668 9.96827C5.47601 9.36995 9.91577 4.57245 7.53655 3.63045C5.60255 2.86497 4.57463 5.97218 5.49163 7.51563C4.95424 10.1698 3.79665 12.6709 4.26531 15.9999C5.78533 14.897 6.29773 12.7849 6.71796 10.5822C7.48187 11.0462 7.88961 11.5289 8.86442 11.6039C12.459 11.882 14.4665 8.01553 13.9759 4.44904C13.5401 1.28715 10.3844 -0.321906 7.02415 0.0530204Z" fill="white"/>
</g>
<defs>
<clipPath id="clip0_1_4877">
<rect width="16" height="16" fill="white"/>
</clipPath>
</defs>
</svg>
