<svg width="33" height="32" viewBox="0 0 33 32" fill="none" xmlns="http://www.w3.org/2000/svg">
<path d="M23.9884 7.34395V13.747C23.9884 14.4659 23.9252 15.1802 23.794 15.881C23.2807 18.5955 21.4242 22.7655 16.0511 24.7575C15.6291 24.9137 15.1652 24.9137 14.7432 24.7575C9.36977 22.7655 7.51323 18.5955 6.99989 15.881C6.8691 15.1802 6.80591 14.4659 6.80591 13.747V7.34395C11.7796 9.60499 15.3972 5.08301 15.3972 5.08301C15.3972 5.08301 19.0143 9.60499 23.9884 7.34395Z" fill="#FA8232"/>
<path d="M13.0429 23.9987C11.1359 22.9873 9.79039 21.6727 8.85205 20.314C8.89511 14.2826 12.7587 9.15301 18.1409 7.22681C19.6411 7.9771 21.6669 8.39921 23.9883 7.34402V8.00209C17.874 10.8879 13.5291 16.9167 13.0429 23.9987Z" fill="#FA8232"/>
<path d="M22.4724 26.9663C20.5418 26.9663 18.9768 25.4013 18.9768 23.4707V20.9738H25.9681V23.4707C25.9681 25.4013 24.4031 26.9663 22.4724 26.9663Z" fill="#E7F2F7"/>
<path d="M24.9693 20.9738V22.7957C24.9693 24.7263 23.4043 26.2913 21.4737 26.2913C20.982 26.292 20.4957 26.1886 20.0468 25.9878C19.3872 25.3521 18.9768 24.4593 18.9768 23.4707V20.9738H24.9693Z" fill="#E7F2F7"/>
<path d="M23.9884 12.1626V13.747C23.9884 13.8202 23.9877 13.8934 23.9864 13.9666C20.7905 16.2037 18.5699 19.7417 18.0957 23.8092C17.6361 24.0705 17.1617 24.3045 16.6747 24.5102C16.6497 24.4748 16.6249 24.4395 16.6006 24.4042C16.6384 19.1098 19.6201 14.5104 23.9884 12.1626Z" fill="#FA8232"/>
<path fill-rule="evenodd" clip-rule="evenodd" d="M23.0968 22.7216C23.0968 22.556 23.031 22.3973 22.9139 22.2802C22.7969 22.1632 22.6381 22.0974 22.4726 22.0973C22.307 22.0974 22.1483 22.1632 22.0313 22.2802C21.9142 22.3973 21.8485 22.556 21.8484 22.7216C21.8485 22.8871 21.9142 23.0458 22.0313 23.1628C22.1483 23.2799 22.307 23.3457 22.4726 23.3457C22.6381 23.3457 22.7968 23.2799 22.9139 23.1629C23.0309 23.0458 23.0967 22.8871 23.0968 22.7216ZM22.3477 22.7216C22.3477 22.6884 22.3609 22.6567 22.3844 22.6332C22.4078 22.6098 22.4396 22.5967 22.4727 22.5967C22.5059 22.5967 22.5377 22.6099 22.5611 22.6334C22.5845 22.6568 22.5976 22.6886 22.5976 22.7217C22.5976 22.7549 22.5844 22.7866 22.5609 22.8101C22.5375 22.8335 22.5057 22.8466 22.4726 22.8466C22.4394 22.8466 22.4077 22.8334 22.3842 22.8099C22.3608 22.7865 22.3477 22.7547 22.3477 22.7216Z" fill="#1C3D57"/>
<path fill-rule="evenodd" clip-rule="evenodd" d="M22.0979 22.4719V24.4693C22.098 24.5687 22.1375 24.6639 22.2077 24.7341C22.2779 24.8043 22.3731 24.8438 22.4725 24.8439C22.6792 24.8439 22.847 24.6761 22.847 24.4693V22.4719C22.847 22.2651 22.6792 22.0973 22.4725 22.0973C22.3731 22.0974 22.2779 22.1368 22.2077 22.2071C22.1375 22.2773 22.098 22.3725 22.0979 22.4719Z" fill="#1C3D57"/>
<path fill-rule="evenodd" clip-rule="evenodd" d="M22.4724 27.3408C24.6098 27.3408 26.3426 25.6081 26.3426 23.4706V20.9737C26.3426 20.8744 26.3031 20.7791 26.2329 20.7089C26.1626 20.6387 26.0674 20.5992 25.968 20.5992H18.9768C18.8774 20.5992 18.7822 20.6387 18.712 20.7089C18.6417 20.7791 18.6023 20.8744 18.6023 20.9737V23.4706C18.6023 25.6081 20.335 27.3408 22.4724 27.3408ZM22.4724 26.5917C20.7487 26.5917 19.3513 25.1944 19.3513 23.4706V21.3483H25.5935V23.4706C25.5935 25.1944 24.1962 26.5917 22.4724 26.5917Z" fill="#1C3D57"/>
<path fill-rule="evenodd" clip-rule="evenodd" d="M20.3501 20.9738V19.4757C20.3501 18.3038 21.3005 17.3534 22.4724 17.3534C23.6444 17.3534 24.5948 18.3038 24.5948 19.4757V20.9738C24.5948 21.1805 24.7626 21.3483 24.9693 21.3483C25.1761 21.3483 25.3439 21.1805 25.3439 20.9738V19.4757C25.3439 17.8901 24.0581 16.6042 22.4724 16.6042C20.8868 16.6042 19.6011 17.8901 19.6011 19.4757V20.9738C19.6011 21.1805 19.7689 21.3483 19.9755 21.3483C20.1823 21.3483 20.3501 21.1805 20.3501 20.9738Z" fill="#1C3D57"/>
<path fill-rule="evenodd" clip-rule="evenodd" d="M18.7634 23.0581C17.9707 23.6083 17.054 24.099 15.995 24.5002C15.6641 24.6256 15.2987 24.6256 14.9678 24.5002V24.5002C9.82426 22.5525 8.04368 18.4779 7.55253 15.8237C7.42678 15.139 7.36647 14.4406 7.36647 13.7378V7.8393C11.4315 9.37647 14.5404 6.56271 15.4813 5.56002C16.4222 6.56271 19.5312 9.37647 23.596 7.83939C23.5962 7.8393 23.5962 13.7378 23.5962 13.7378C23.5962 14.4406 23.5358 15.1391 23.4101 15.824C23.3381 16.2135 23.1917 17.9986 21.2761 20.5898C21.2171 20.6696 21.1922 20.7697 21.2069 20.8679C21.2217 20.9661 21.2748 21.0545 21.3546 21.1135C21.4345 21.1726 21.5346 21.1974 21.6328 21.1827C21.731 21.168 21.8194 21.1148 21.8785 21.035C23.9177 18.2767 24.07 16.3748 24.1468 15.9597L24.1469 15.9593C24.2807 15.2299 24.3453 14.4862 24.3453 13.7378V7.27543C24.3453 7.21251 24.3294 7.1506 24.2992 7.09542C24.2689 7.04023 24.2253 6.99356 24.1722 6.95971C24.1192 6.92586 24.0585 6.90592 23.9957 6.90173C23.9329 6.89754 23.8701 6.90924 23.813 6.93575C19.1583 9.0971 15.7762 4.7628 15.7762 4.7628C15.7411 4.71808 15.6964 4.68192 15.6453 4.65705C15.5942 4.63219 15.5382 4.61926 15.4813 4.61926C15.4245 4.61926 15.3685 4.63219 15.3174 4.65705C15.2663 4.68192 15.2215 4.71808 15.1865 4.7628C15.1865 4.7628 11.8044 9.0971 7.14966 6.93575C7.09259 6.90921 7.02976 6.89749 6.96696 6.90167C6.90417 6.90585 6.84344 6.92579 6.7904 6.95964C6.73735 6.9935 6.69369 7.04019 6.66346 7.09538C6.63323 7.15058 6.6174 7.2125 6.61743 7.27543V13.7378C6.61743 14.4862 6.68188 15.2299 6.81581 15.9593C6.81588 15.9594 6.81591 15.9596 6.8159 15.9597C7.3386 18.7848 9.2275 23.1275 14.7025 25.2007C15.2043 25.3909 15.7583 25.3909 16.2601 25.2007H16.2602C17.3814 24.7759 18.3514 24.2559 19.1905 23.6735C19.272 23.6169 19.3278 23.5302 19.3454 23.4324C19.3631 23.3347 19.3413 23.2339 19.2847 23.1523C19.228 23.0707 19.1413 23.015 19.0435 22.9973C18.9458 22.9797 18.845 23.0015 18.7634 23.0581Z" fill="#1C3D57"/>
<path fill-rule="evenodd" clip-rule="evenodd" d="M16.9794 12.4844C16.9794 11.6575 16.3081 10.9862 15.4812 10.9862C14.6544 10.9862 13.9832 11.6575 13.9832 12.4844C13.9832 13.3112 14.6544 13.9825 15.4812 13.9825C16.3081 13.9825 16.9794 13.3112 16.9794 12.4844Z" fill="#FFE177"/>
<path fill-rule="evenodd" clip-rule="evenodd" d="M17.354 12.4844C17.354 11.4509 16.5149 10.6118 15.4813 10.6118C14.4477 10.6118 13.6086 11.4509 13.6086 12.4844C13.6086 13.518 14.4477 14.3571 15.4813 14.3571C16.5149 14.3571 17.354 13.518 17.354 12.4844ZM16.6049 12.4844C16.6049 13.1046 16.1014 13.608 15.4813 13.608C14.8611 13.608 14.3577 13.1046 14.3577 12.4844C14.3577 11.8643 14.8611 11.3609 15.4813 11.3609C16.1014 11.3609 16.6049 11.8643 16.6049 12.4844Z" fill="#1C3D57"/>
<path d="M18.4776 17.2285H12.4851C12.4851 15.5736 13.8264 14.2322 15.4813 14.2322C17.1363 14.2322 18.4776 15.5736 18.4776 17.2285Z" fill="#FFE177"/>
<path fill-rule="evenodd" clip-rule="evenodd" d="M18.4775 17.6029C18.5768 17.6029 18.672 17.5635 18.7422 17.4932C18.8125 17.423 18.8519 17.3278 18.8519 17.2285C18.8519 15.3666 17.343 13.8577 15.4811 13.8577C13.6194 13.8577 12.1104 15.3666 12.1104 17.2285C12.1104 17.3278 12.1498 17.423 12.2201 17.4932C12.2903 17.5635 12.3856 17.6029 12.4849 17.6029H18.4775ZM18.0764 16.8539H12.886C13.0677 15.5833 14.1602 14.6067 15.4811 14.6067C16.8021 14.6067 17.8947 15.5833 18.0764 16.854V16.8539Z" fill="#1C3D57"/>
</svg>
