<svg width="32" height="32" viewBox="0 0 32 32" fill="none" xmlns="http://www.w3.org/2000/svg">
<path d="M14 21H2C1.86739 21 1.74021 21.0527 1.64645 21.1464C1.55268 21.2402 1.5 21.3674 1.5 21.5V30.5C1.5 30.6326 1.55268 30.7598 1.64645 30.8536C1.74021 30.9473 1.86739 31 2 31H14C14.1326 31 14.2598 30.9473 14.3536 30.8536C14.4473 30.7598 14.5 30.6326 14.5 30.5V21.5C14.5 21.3674 14.4473 21.2402 14.3536 21.1464C14.2598 21.0527 14.1326 21 14 21ZM10 18H22C22.1326 18 22.2598 17.9473 22.3536 17.8536C22.4473 17.7598 22.5 17.6326 22.5 17.5V8.5C22.5 8.36739 22.4473 8.24021 22.3536 8.14645C22.2598 8.05268 22.1326 8 22 8H10C9.86739 8 9.74021 8.05268 9.64645 8.14645C9.55268 8.24021 9.5 8.36739 9.5 8.5V17.5C9.5 17.6326 9.55268 17.7598 9.64645 17.8536C9.74021 17.9473 9.86739 18 10 18ZM30 21H18C17.8674 21 17.7402 21.0527 17.6464 21.1464C17.5527 21.2402 17.5 21.3674 17.5 21.5V30.5C17.5 30.6326 17.5527 30.7598 17.6464 30.8536C17.7402 30.9473 17.8674 31 18 31H30C30.1326 31 30.2598 30.9473 30.3536 30.8536C30.4473 30.7598 30.5 30.6326 30.5 30.5V21.5C30.5 21.3674 30.4473 21.2402 30.3536 21.1464C30.2598 21.0527 30.1326 21 30 21Z" fill="#FA8232"/>
<path d="M14.5 18H1.5C1.36739 18 1.24021 18.0527 1.14645 18.1465C1.05268 18.2402 1 18.3674 1 18.5V21.5C1 21.6326 1.05268 21.7598 1.14645 21.8536C1.24021 21.9473 1.36739 22 1.5 22H14.5C14.6326 22 14.7598 21.9473 14.8536 21.8536C14.9473 21.7598 15 21.6326 15 21.5V18.5C15 18.3674 14.9473 18.2402 14.8536 18.1465C14.7598 18.0527 14.6326 18 14.5 18ZM9.0575 8.83401C9.10197 8.95893 9.19415 9.06113 9.31383 9.1182C9.43351 9.17528 9.57094 9.18258 9.696 9.13851L21.95 4.79951C22.0119 4.77761 22.0689 4.74371 22.1178 4.69976C22.1666 4.6558 22.2063 4.60266 22.2346 4.54336C22.2628 4.48407 22.2792 4.41978 22.2826 4.35417C22.286 4.28857 22.2765 4.22293 22.2545 4.16101L21.2535 1.33301C21.2316 1.27117 21.1977 1.21425 21.1538 1.16552C21.1099 1.11679 21.0567 1.0772 20.9975 1.04901C20.8776 0.992214 20.7402 0.98485 20.615 1.02851L8.3605 5.36751C8.23583 5.41231 8.13389 5.50453 8.07687 5.62411C8.01984 5.74368 8.01234 5.88094 8.056 6.00601L9.0575 8.83401ZM30.5 18H17.5C17.3674 18 17.2402 18.0527 17.1464 18.1465C17.0527 18.2402 17 18.3674 17 18.5V21.5C17 21.6326 17.0527 21.7598 17.1464 21.8536C17.2402 21.9473 17.3674 22 17.5 22H30.5C30.6326 22 30.7598 21.9473 30.8536 21.8536C30.9473 21.7598 31 21.6326 31 21.5V18.5C31 18.3674 30.9473 18.2402 30.8536 18.1465C30.7598 18.0527 30.6326 18 30.5 18Z" fill="#4D4D4D"/>
<path d="M24.52 5.54551H26.52V6.54551H24.52V5.54551ZM27.52 5.54551H28.52V6.54551H27.52V5.54551ZM25.5175 2.61001L25.9965 3.48751L24.2415 4.44551L23.762 3.56751L25.5175 2.61001ZM27.273 1.65051L27.752 2.52851L26.874 3.00751L26.395 2.12951L27.273 1.65051ZM24.24 7.64351L25.996 8.60201L25.517 9.48001L23.761 8.52101L24.24 7.64351ZM26.872 9.08001L27.75 9.56001L27.2705 10.437L26.393 9.95801L26.872 9.08001Z" fill="#CCCCCC"/>
<path d="M9.51 26H6.49C6.09499 25.9995 5.71631 25.8423 5.437 25.563C5.15768 25.2837 5.00053 24.905 5 24.51C5 23.6685 5.6685 23 6.49 23H9.51C9.90501 23.0005 10.2837 23.1577 10.563 23.437C10.8423 23.7163 10.9995 24.095 11 24.49C11 25.3315 10.3315 26 9.51 26ZM6.49 24C6.36004 24 6.23541 24.0516 6.14352 24.1435C6.05162 24.2354 6 24.36 6 24.49C6 24.7805 6.2195 25 6.49 25H9.51C9.63996 25 9.76459 24.9484 9.85648 24.8565C9.94838 24.7646 10 24.64 10 24.51C10 24.2195 9.7805 24 9.51 24H6.49ZM25.51 26H22.49C22.095 25.9995 21.7163 25.8423 21.437 25.563C21.1577 25.2837 21.0005 24.905 21 24.51C21 23.6685 21.6685 23 22.49 23H25.51C25.905 23.0005 26.2837 23.1577 26.563 23.437C26.8423 23.7163 26.9995 24.095 27 24.49C27 25.3315 26.3315 26 25.51 26ZM22.49 24C22.36 24 22.2354 24.0516 22.1435 24.1435C22.0516 24.2354 22 24.36 22 24.49C22 24.7805 22.2195 25 22.49 25H25.51C25.64 25 25.7646 24.9484 25.8565 24.8565C25.9484 24.7646 26 24.64 26 24.51C26 24.2195 25.7805 24 25.51 24H22.49ZM17.51 13H14.49C14.095 12.9995 13.7163 12.8423 13.437 12.563C13.1577 12.2837 13.0005 11.905 13 11.51C13 10.6685 13.6685 10 14.49 10H17.51C17.905 10.0005 18.2837 10.1577 18.563 10.437C18.8423 10.7163 18.9995 11.095 19 11.49C19 12.3315 18.3315 13 17.51 13ZM14.49 11C14.36 11 14.2354 11.0516 14.1435 11.1435C14.0516 11.2354 14 11.36 14 11.49C14 11.7805 14.2195 12 14.49 12H17.51C17.5743 12 17.6381 11.9873 17.6975 11.9627C17.757 11.9381 17.811 11.902 17.8565 11.8565C17.902 11.811 17.9381 11.757 17.9627 11.6975C17.9873 11.6381 18 11.5743 18 11.51C18 11.2195 17.7805 11 17.51 11H14.49Z" fill="white"/>
<path d="M14 16.5C12.4573 16.5018 10.9289 16.2036 9.5 15.622V17.5C9.5 17.6327 9.55268 17.7598 9.64645 17.8536C9.74021 17.9474 9.86739 18 10 18H22C22.1326 18 22.2598 17.9474 22.3536 17.8536C22.4473 17.7598 22.5 17.6327 22.5 17.5V12.769C20.592 15.026 17.5005 16.5 14 16.5ZM6 29.5C4.45727 29.5018 2.92891 29.2036 1.5 28.622V30.5C1.5 30.6327 1.55268 30.7598 1.64645 30.8536C1.74021 30.9474 1.86739 31 2 31H14C14.1326 31 14.2598 30.9474 14.3536 30.8536C14.4473 30.7598 14.5 30.6327 14.5 30.5V25.769C12.592 28.026 9.5005 29.5 6 29.5ZM22 29.5C20.4573 29.5018 18.9289 29.2036 17.5 28.622V30.5C17.5 30.6327 17.5527 30.7598 17.6464 30.8536C17.7402 30.9474 17.8674 31 18 31H30C30.1326 31 30.2598 30.9474 30.3536 30.8536C30.4473 30.7598 30.5 30.6327 30.5 30.5V25.769C28.592 28.026 25.5005 29.5 22 29.5Z" fill="#FFE177"/>
<path d="M18.5 15H20.5V16H18.5V15ZM10.5 28H12.5V29H10.5V28ZM26.5 28H28.5V29H26.5V28Z" fill="white"/>
</svg>
