<svg width="16" height="16" viewBox="0 0 16 16" fill="none" xmlns="http://www.w3.org/2000/svg">
<path d="M8.35389 13.5024L5.07656 13.4425C4.01544 13.4216 2.95167 13.4633 1.91135 13.247C0.328783 12.9238 0.216668 11.3391 0.0993522 10.0098C-0.0622975 8.14108 0.000281894 6.23841 0.305336 4.38525C0.477549 3.34544 1.15528 2.72497 2.20336 2.65746C5.74141 2.41242 9.30298 2.44146 12.8332 2.55578C13.206 2.56626 13.5814 2.62354 13.949 2.68874C15.7638 3.00673 15.808 4.80252 15.9257 6.31425C16.043 7.84157 15.9934 9.37673 15.7692 10.8937C15.5893 12.1496 15.2451 13.2029 13.7926 13.3046C11.9727 13.4375 10.1945 13.5445 8.36949 13.5105C8.36957 13.5024 8.35909 13.5024 8.35389 13.5024ZM6.42714 10.3226C7.7986 9.53545 9.14389 8.76139 10.5075 7.97948C9.13349 7.1923 7.79076 6.41824 6.42714 5.63634V10.3226Z" fill="white"/>
</svg>
